<svg width="30" height="30" viewBox="0 0 30 30" fill="none" xmlns="http://www.w3.org/2000/svg">
<path d="M24.3962 1.75471C23.1953 1.75471 22.0435 2.2318 21.1942 3.08102C20.345 3.93025 19.8679 5.08204 19.8679 6.28302V24.3962C19.8679 25.5972 20.345 26.749 21.1942 27.5982C22.0435 28.4474 23.1953 28.9245 24.3962 28.9245C25.5972 28.9245 26.749 28.4474 27.5982 27.5982C28.4475 26.749 28.9245 25.5972 28.9245 24.3962C28.9245 23.1952 28.4475 22.0435 27.5982 21.1942C26.749 20.345 25.5972 19.8679 24.3962 19.8679H6.28303C5.08205 19.8679 3.93026 20.345 3.08104 21.1942C2.23182 22.0435 1.75473 23.1952 1.75473 24.3962C1.75473 25.5972 2.23182 26.749 3.08104 27.5982C3.93026 28.4474 5.08205 28.9245 6.28303 28.9245C7.48401 28.9245 8.6358 28.4474 9.48503 27.5982C10.3342 26.749 10.8113 25.5972 10.8113 24.3962V6.28302C10.8113 5.08204 10.3342 3.93025 9.48503 3.08102C8.6358 2.2318 7.48401 1.75471 6.28303 1.75471C5.08205 1.75471 3.93026 2.2318 3.08104 3.08102C2.23182 3.93025 1.75473 5.08204 1.75473 6.28302C1.75473 7.484 2.23182 8.63579 3.08104 9.48501C3.93026 10.3342 5.08205 10.8113 6.28303 10.8113H24.3962C25.5972 10.8113 26.749 10.3342 27.5982 9.48501C28.4475 8.63579 28.9245 7.484 28.9245 6.28302C28.9245 5.08204 28.4475 3.93025 27.5982 3.08102C26.749 2.2318 25.5972 1.75471 24.3962 1.75471Z" stroke="url(#paint0_linear_4_6)" stroke-width="2" stroke-linecap="round" stroke-linejoin="round"/>
<defs>
<linearGradient id="paint0_linear_4_6" x1="4.00001" y1="0.999998" x2="31" y2="32" gradientUnits="userSpaceOnUse">
<stop stop-color="#14B8A6"/>
<stop offset="1" stop-color="#14B856"/>
</linearGradient>
</defs>
</svg>
