<svg width="212" height="44" viewBox="0 0 212 44" fill="none" xmlns="http://www.w3.org/2000/svg">
<g clip-path="url(#clip0_1_10)">
<rect width="212" height="44" rx="4" fill="black"/>
<g filter="url(#filter0_d_1_10)">
<g filter="url(#filter1_d_1_10)">
<rect x="4" y="5" width="36" height="36" rx="5" fill="black"/>
</g>
<path d="M31.3962 9.75471C30.1952 9.75471 29.0435 10.2318 28.1942 11.081C27.345 11.9302 26.8679 13.082 26.8679 14.283V32.3962C26.8679 33.5972 27.345 34.749 28.1942 35.5982C29.0435 36.4474 30.1952 36.9245 31.3962 36.9245C32.5972 36.9245 33.749 36.4474 34.5982 35.5982C35.4474 34.749 35.9245 33.5972 35.9245 32.3962C35.9245 31.1952 35.4474 30.0435 34.5982 29.1942C33.749 28.345 32.5972 27.8679 31.3962 27.8679H13.283C12.082 27.8679 10.9302 28.345 10.081 29.1942C9.2318 30.0435 8.75471 31.1952 8.75471 32.3962C8.75471 33.5972 9.2318 34.749 10.081 35.5982C10.9302 36.4474 12.082 36.9245 13.283 36.9245C14.484 36.9245 15.6358 36.4474 16.485 35.5982C17.3342 34.749 17.8113 33.5972 17.8113 32.3962V14.283C17.8113 13.082 17.3342 11.9302 16.485 11.081C15.6358 10.2318 14.484 9.75471 13.283 9.75471C12.082 9.75471 10.9302 10.2318 10.081 11.081C9.2318 11.9302 8.75471 13.082 8.75471 14.283C8.75471 15.484 9.2318 16.6358 10.081 17.485C10.9302 18.3342 12.082 18.8113 13.283 18.8113H31.3962C32.5972 18.8113 33.749 18.3342 34.5982 17.485C35.4474 16.6358 35.9245 15.484 35.9245 14.283C35.9245 13.082 35.4474 11.9302 34.5982 11.081C33.749 10.2318 32.5972 9.75471 31.3962 9.75471Z" stroke="url(#paint0_linear_1_10)" stroke-width="2" stroke-linecap="round" stroke-linejoin="round"/>
</g>
<path d="M47.0227 12.7273H53.0909L59.5 28.3636H59.7727L66.1818 12.7273H72.25V36H67.4773V20.8523H67.2841L61.2614 35.8864H58.0114L51.9886 20.7955H51.7955V36H47.0227V12.7273ZM86.6063 28.5682V18.5455H91.4472V36H86.7994V32.8295H86.6176C86.2237 33.8523 85.5684 34.6742 84.6517 35.2955C83.7426 35.9167 82.6328 36.2273 81.3222 36.2273C80.1555 36.2273 79.129 35.9621 78.2426 35.4318C77.3563 34.9015 76.6631 34.1477 76.1631 33.1705C75.6706 32.1932 75.4206 31.0227 75.4131 29.6591V18.5455H80.254V28.7955C80.2616 29.8258 80.5381 30.6402 81.0835 31.2386C81.629 31.8371 82.36 32.1364 83.2767 32.1364C83.86 32.1364 84.4055 32.0038 84.9131 31.7386C85.4206 31.4659 85.8297 31.0644 86.1403 30.5341C86.4585 30.0038 86.6138 29.3485 86.6063 28.5682ZM99.3602 12.7273V36H94.5193V12.7273H99.3602ZM111.722 18.5455V22.1818H101.211V18.5455H111.722ZM103.597 14.3636H108.438V30.6364C108.438 31.0833 108.506 31.4318 108.643 31.6818C108.779 31.9242 108.968 32.0947 109.211 32.1932C109.461 32.2917 109.749 32.3409 110.074 32.3409C110.302 32.3409 110.529 32.322 110.756 32.2841C110.984 32.2386 111.158 32.2045 111.279 32.1818L112.04 35.7841C111.798 35.8598 111.457 35.947 111.018 36.0455C110.578 36.1515 110.044 36.2159 109.415 36.2386C108.249 36.2841 107.226 36.1288 106.347 35.7727C105.476 35.4167 104.798 34.8636 104.313 34.1136C103.828 33.3636 103.59 32.4167 103.597 31.2727V14.3636ZM114.076 36V18.5455H118.916V36H114.076ZM116.507 16.2955C115.788 16.2955 115.17 16.0568 114.655 15.5795C114.148 15.0947 113.894 14.5152 113.894 13.8409C113.894 13.1742 114.148 12.6023 114.655 12.125C115.17 11.6402 115.788 11.3977 116.507 11.3977C117.227 11.3977 117.841 11.6402 118.348 12.125C118.863 12.6023 119.121 13.1742 119.121 13.8409C119.121 14.5152 118.863 15.0947 118.348 15.5795C117.841 16.0568 117.227 16.2955 116.507 16.2955ZM121.994 36V18.5455H126.608V21.625H126.812C127.176 20.6023 127.782 19.7955 128.631 19.2045C129.479 18.6136 130.494 18.3182 131.676 18.3182C132.873 18.3182 133.892 18.6174 134.733 19.2159C135.574 19.8068 136.134 20.6098 136.415 21.625H136.597C136.953 20.625 137.597 19.8258 138.528 19.2273C139.468 18.6212 140.578 18.3182 141.858 18.3182C143.487 18.3182 144.809 18.8371 145.824 19.875C146.847 20.9053 147.358 22.3674 147.358 24.2614V36H142.528V25.2159C142.528 24.2462 142.271 23.5189 141.756 23.0341C141.241 22.5492 140.597 22.3068 139.824 22.3068C138.945 22.3068 138.259 22.5871 137.767 23.1477C137.275 23.7008 137.028 24.4318 137.028 25.3409V36H132.335V25.1136C132.335 24.2576 132.089 23.5758 131.597 23.0682C131.112 22.5606 130.472 22.3068 129.676 22.3068C129.138 22.3068 128.653 22.4432 128.222 22.7159C127.797 22.9811 127.46 23.3561 127.21 23.8409C126.96 24.3182 126.835 24.8788 126.835 25.5227V36H121.994ZM158.268 36.3409C156.503 36.3409 154.977 35.9659 153.689 35.2159C152.408 34.4583 151.42 33.4053 150.723 32.0568C150.026 30.7008 149.677 29.1288 149.677 27.3409C149.677 25.5379 150.026 23.9621 150.723 22.6136C151.42 21.2576 152.408 20.2045 153.689 19.4545C154.977 18.697 156.503 18.3182 158.268 18.3182C160.033 18.3182 161.556 18.697 162.836 19.4545C164.124 20.2045 165.117 21.2576 165.814 22.6136C166.511 23.9621 166.859 25.5379 166.859 27.3409C166.859 29.1288 166.511 30.7008 165.814 32.0568C165.117 33.4053 164.124 34.4583 162.836 35.2159C161.556 35.9659 160.033 36.3409 158.268 36.3409ZM158.291 32.5909C159.094 32.5909 159.764 32.3636 160.302 31.9091C160.84 31.447 161.245 30.8182 161.518 30.0227C161.798 29.2273 161.939 28.322 161.939 27.3068C161.939 26.2917 161.798 25.3864 161.518 24.5909C161.245 23.7955 160.84 23.1667 160.302 22.7045C159.764 22.2424 159.094 22.0114 158.291 22.0114C157.48 22.0114 156.798 22.2424 156.245 22.7045C155.7 23.1667 155.287 23.7955 155.007 24.5909C154.734 25.3864 154.598 26.2917 154.598 27.3068C154.598 28.322 154.734 29.2273 155.007 30.0227C155.287 30.8182 155.7 31.447 156.245 31.9091C156.798 32.3636 157.48 32.5909 158.291 32.5909ZM175.639 36.2841C174.313 36.2841 173.112 35.9432 172.036 35.2614C170.968 34.572 170.12 33.5606 169.491 32.2273C168.87 30.8864 168.559 29.2424 168.559 27.2955C168.559 25.2955 168.881 23.6326 169.525 22.3068C170.169 20.9735 171.025 19.9773 172.093 19.3182C173.169 18.6515 174.347 18.3182 175.627 18.3182C176.605 18.3182 177.419 18.4848 178.07 18.8182C178.73 19.1439 179.26 19.553 179.661 20.0455C180.07 20.5303 180.381 21.0076 180.593 21.4773H180.741V12.7273H185.57V36H180.798V33.2045H180.593C180.366 33.6894 180.044 34.1705 179.627 34.6477C179.218 35.1174 178.684 35.5076 178.025 35.8182C177.373 36.1288 176.578 36.2841 175.639 36.2841ZM177.173 32.4318C177.953 32.4318 178.612 32.2197 179.15 31.7955C179.695 31.3636 180.112 30.7614 180.4 29.9886C180.695 29.2159 180.843 28.3106 180.843 27.2727C180.843 26.2348 180.699 25.3333 180.411 24.5682C180.123 23.803 179.707 23.2121 179.161 22.7955C178.616 22.3788 177.953 22.1705 177.173 22.1705C176.377 22.1705 175.707 22.3864 175.161 22.8182C174.616 23.25 174.203 23.8485 173.923 24.6136C173.642 25.3788 173.502 26.2652 173.502 27.2727C173.502 28.2879 173.642 29.1856 173.923 29.9659C174.211 30.7386 174.623 31.3447 175.161 31.7841C175.707 32.2159 176.377 32.4318 177.173 32.4318ZM196.705 36.3409C194.91 36.3409 193.364 35.9773 192.069 35.25C190.781 34.5152 189.788 33.4773 189.091 32.1364C188.395 30.7879 188.046 29.1932 188.046 27.3523C188.046 25.5568 188.395 23.9811 189.091 22.625C189.788 21.2689 190.77 20.2121 192.035 19.4545C193.307 18.697 194.8 18.3182 196.512 18.3182C197.663 18.3182 198.735 18.5038 199.728 18.875C200.728 19.2386 201.599 19.7879 202.341 20.5227C203.091 21.2576 203.675 22.1818 204.091 23.2955C204.508 24.4015 204.716 25.697 204.716 27.1818V28.5114H189.978V25.5114H200.16C200.16 24.8144 200.008 24.197 199.705 23.6591C199.402 23.1212 198.982 22.7008 198.444 22.3977C197.913 22.0871 197.296 21.9318 196.591 21.9318C195.857 21.9318 195.205 22.1023 194.637 22.4432C194.076 22.7765 193.637 23.2273 193.319 23.7955C193.001 24.3561 192.838 24.9811 192.83 25.6705V28.5227C192.83 29.3864 192.989 30.1326 193.307 30.7614C193.633 31.3902 194.091 31.875 194.682 32.2159C195.273 32.5568 195.974 32.7273 196.785 32.7273C197.323 32.7273 197.815 32.6515 198.262 32.5C198.709 32.3485 199.091 32.1212 199.41 31.8182C199.728 31.5152 199.97 31.1439 200.137 30.7045L204.614 31C204.387 32.0758 203.921 33.0152 203.216 33.8182C202.52 34.6136 201.618 35.2348 200.512 35.6818C199.413 36.1212 198.145 36.3409 196.705 36.3409Z" fill="white"/>
</g>
<defs>
<filter id="filter0_d_1_10" x="0" y="5" width="44" height="44" filterUnits="userSpaceOnUse" color-interpolation-filters="sRGB">
<feFlood flood-opacity="0" result="BackgroundImageFix"/>
<feColorMatrix in="SourceAlpha" type="matrix" values="0 0 0 0 0 0 0 0 0 0 0 0 0 0 0 0 0 0 127 0" result="hardAlpha"/>
<feOffset dy="4"/>
<feGaussianBlur stdDeviation="2"/>
<feComposite in2="hardAlpha" operator="out"/>
<feColorMatrix type="matrix" values="0 0 0 0 0 0 0 0 0 0 0 0 0 0 0 0 0 0 0.25 0"/>
<feBlend mode="normal" in2="BackgroundImageFix" result="effect1_dropShadow_1_10"/>
<feBlend mode="normal" in="SourceGraphic" in2="effect1_dropShadow_1_10" result="shape"/>
</filter>
<filter id="filter1_d_1_10" x="-1" y="2" width="46" height="46" filterUnits="userSpaceOnUse" color-interpolation-filters="sRGB">
<feFlood flood-opacity="0" result="BackgroundImageFix"/>
<feColorMatrix in="SourceAlpha" type="matrix" values="0 0 0 0 0 0 0 0 0 0 0 0 0 0 0 0 0 0 127 0" result="hardAlpha"/>
<feMorphology radius="1" operator="erode" in="SourceAlpha" result="effect1_dropShadow_1_10"/>
<feOffset dy="2"/>
<feGaussianBlur stdDeviation="3"/>
<feComposite in2="hardAlpha" operator="out"/>
<feColorMatrix type="matrix" values="0 0 0 0 1 0 0 0 0 1 0 0 0 0 1 0 0 0 0.25 0"/>
<feBlend mode="normal" in2="BackgroundImageFix" result="effect1_dropShadow_1_10"/>
<feBlend mode="normal" in="SourceGraphic" in2="effect1_dropShadow_1_10" result="shape"/>
</filter>
<linearGradient id="paint0_linear_1_10" x1="11" y1="9" x2="38" y2="40" gradientUnits="userSpaceOnUse">
<stop stop-color="#14B8A6"/>
<stop offset="1" stop-color="#14B856"/>
</linearGradient>
<clipPath id="clip0_1_10">
<rect width="212" height="44" rx="4" fill="white"/>
</clipPath>
</defs>
</svg>
