<svg width="206" height="44" viewBox="0 0 206 44" fill="none" xmlns="http://www.w3.org/2000/svg">
<g filter="url(#filter0_d_1_9)">
<g filter="url(#filter1_d_1_9)">
<rect x="4" width="36" height="36" rx="5" fill="black"/>
</g>
<path d="M31.3962 4.75472C30.1952 4.75472 29.0435 5.2318 28.1942 6.08103C27.345 6.93025 26.8679 8.08204 26.8679 9.28302V27.3962C26.8679 28.5972 27.345 29.749 28.1942 30.5982C29.0435 31.4474 30.1952 31.9245 31.3962 31.9245C32.5972 31.9245 33.749 31.4474 34.5982 30.5982C35.4474 29.749 35.9245 28.5972 35.9245 27.3962C35.9245 26.1952 35.4474 25.0435 34.5982 24.1942C33.749 23.345 32.5972 22.8679 31.3962 22.8679H13.283C12.082 22.8679 10.9302 23.345 10.081 24.1942C9.2318 25.0435 8.75472 26.1952 8.75472 27.3962C8.75472 28.5972 9.2318 29.749 10.081 30.5982C10.9302 31.4474 12.082 31.9245 13.283 31.9245C14.484 31.9245 15.6358 31.4474 16.485 30.5982C17.3342 29.749 17.8113 28.5972 17.8113 27.3962V9.28302C17.8113 8.08204 17.3342 6.93025 16.485 6.08103C15.6358 5.2318 14.484 4.75472 13.283 4.75472C12.082 4.75472 10.9302 5.2318 10.081 6.08103C9.2318 6.93025 8.75472 8.08204 8.75472 9.28302C8.75472 10.484 9.2318 11.6358 10.081 12.485C10.9302 13.3342 12.082 13.8113 13.283 13.8113H31.3962C32.5972 13.8113 33.749 13.3342 34.5982 12.485C35.4474 11.6358 35.9245 10.484 35.9245 9.28302C35.9245 8.08204 35.4474 6.93025 34.5982 6.08103C33.749 5.2318 32.5972 4.75472 31.3962 4.75472Z" stroke="url(#paint0_linear_1_9)" stroke-width="2" stroke-linecap="round" stroke-linejoin="round"/>
</g>
<path d="M47.0227 7.72727H53.0909L59.5 23.3636H59.7727L66.1818 7.72727H72.25V31H67.4773V15.8523H67.2841L61.2614 30.8864H58.0114L51.9886 15.7955H51.7955V31H47.0227V7.72727ZM86.6063 23.5682V13.5455H91.4472V31H86.7994V27.8295H86.6176C86.2237 28.8523 85.5684 29.6742 84.6517 30.2955C83.7426 30.9167 82.6328 31.2273 81.3222 31.2273C80.1555 31.2273 79.129 30.9621 78.2426 30.4318C77.3563 29.9015 76.6631 29.1477 76.1631 28.1705C75.6706 27.1932 75.4206 26.0227 75.4131 24.6591V13.5455H80.254V23.7955C80.2616 24.8258 80.5381 25.6402 81.0835 26.2386C81.629 26.8371 82.36 27.1364 83.2767 27.1364C83.86 27.1364 84.4055 27.0038 84.9131 26.7386C85.4206 26.4659 85.8297 26.0644 86.1403 25.5341C86.4585 25.0038 86.6138 24.3485 86.6063 23.5682ZM99.3602 7.72727V31H94.5193V7.72727H99.3602ZM111.722 13.5455V17.1818H101.211V13.5455H111.722ZM103.597 9.36364H108.438V25.6364C108.438 26.0833 108.506 26.4318 108.643 26.6818C108.779 26.9242 108.968 27.0947 109.211 27.1932C109.461 27.2917 109.749 27.3409 110.074 27.3409C110.302 27.3409 110.529 27.322 110.756 27.2841C110.984 27.2386 111.158 27.2045 111.279 27.1818L112.04 30.7841C111.798 30.8598 111.457 30.947 111.018 31.0455C110.578 31.1515 110.044 31.2159 109.415 31.2386C108.249 31.2841 107.226 31.1288 106.347 30.7727C105.476 30.4167 104.798 29.8636 104.313 29.1136C103.828 28.3636 103.59 27.4167 103.597 26.2727V9.36364ZM114.076 31V13.5455H118.916V31H114.076ZM116.507 11.2955C115.788 11.2955 115.17 11.0568 114.655 10.5795C114.148 10.0947 113.894 9.51515 113.894 8.84091C113.894 8.17424 114.148 7.60227 114.655 7.125C115.17 6.64015 115.788 6.39773 116.507 6.39773C117.227 6.39773 117.841 6.64015 118.348 7.125C118.863 7.60227 119.121 8.17424 119.121 8.84091C119.121 9.51515 118.863 10.0947 118.348 10.5795C117.841 11.0568 117.227 11.2955 116.507 11.2955ZM121.994 31V13.5455H126.608V16.625H126.812C127.176 15.6023 127.782 14.7955 128.631 14.2045C129.479 13.6136 130.494 13.3182 131.676 13.3182C132.873 13.3182 133.892 13.6174 134.733 14.2159C135.574 14.8068 136.134 15.6098 136.415 16.625H136.597C136.953 15.625 137.597 14.8258 138.528 14.2273C139.468 13.6212 140.578 13.3182 141.858 13.3182C143.487 13.3182 144.809 13.8371 145.824 14.875C146.847 15.9053 147.358 17.3674 147.358 19.2614V31H142.528V20.2159C142.528 19.2462 142.271 18.5189 141.756 18.0341C141.241 17.5492 140.597 17.3068 139.824 17.3068C138.945 17.3068 138.259 17.5871 137.767 18.1477C137.275 18.7008 137.028 19.4318 137.028 20.3409V31H132.335V20.1136C132.335 19.2576 132.089 18.5758 131.597 18.0682C131.112 17.5606 130.472 17.3068 129.676 17.3068C129.138 17.3068 128.653 17.4432 128.222 17.7159C127.797 17.9811 127.46 18.3561 127.21 18.8409C126.96 19.3182 126.835 19.8788 126.835 20.5227V31H121.994ZM158.268 31.3409C156.503 31.3409 154.977 30.9659 153.689 30.2159C152.408 29.4583 151.42 28.4053 150.723 27.0568C150.026 25.7008 149.677 24.1288 149.677 22.3409C149.677 20.5379 150.026 18.9621 150.723 17.6136C151.42 16.2576 152.408 15.2045 153.689 14.4545C154.977 13.697 156.503 13.3182 158.268 13.3182C160.033 13.3182 161.556 13.697 162.836 14.4545C164.124 15.2045 165.117 16.2576 165.814 17.6136C166.511 18.9621 166.859 20.5379 166.859 22.3409C166.859 24.1288 166.511 25.7008 165.814 27.0568C165.117 28.4053 164.124 29.4583 162.836 30.2159C161.556 30.9659 160.033 31.3409 158.268 31.3409ZM158.291 27.5909C159.094 27.5909 159.764 27.3636 160.302 26.9091C160.84 26.447 161.245 25.8182 161.518 25.0227C161.798 24.2273 161.939 23.322 161.939 22.3068C161.939 21.2917 161.798 20.3864 161.518 19.5909C161.245 18.7955 160.84 18.1667 160.302 17.7045C159.764 17.2424 159.094 17.0114 158.291 17.0114C157.48 17.0114 156.798 17.2424 156.245 17.7045C155.7 18.1667 155.287 18.7955 155.007 19.5909C154.734 20.3864 154.598 21.2917 154.598 22.3068C154.598 23.322 154.734 24.2273 155.007 25.0227C155.287 25.8182 155.7 26.447 156.245 26.9091C156.798 27.3636 157.48 27.5909 158.291 27.5909ZM175.639 31.2841C174.313 31.2841 173.112 30.9432 172.036 30.2614C170.968 29.572 170.12 28.5606 169.491 27.2273C168.87 25.8864 168.559 24.2424 168.559 22.2955C168.559 20.2955 168.881 18.6326 169.525 17.3068C170.169 15.9735 171.025 14.9773 172.093 14.3182C173.169 13.6515 174.347 13.3182 175.627 13.3182C176.605 13.3182 177.419 13.4848 178.07 13.8182C178.73 14.1439 179.26 14.553 179.661 15.0455C180.07 15.5303 180.381 16.0076 180.593 16.4773H180.741V7.72727H185.57V31H180.798V28.2045H180.593C180.366 28.6894 180.044 29.1705 179.627 29.6477C179.218 30.1174 178.684 30.5076 178.025 30.8182C177.373 31.1288 176.578 31.2841 175.639 31.2841ZM177.173 27.4318C177.953 27.4318 178.612 27.2197 179.15 26.7955C179.695 26.3636 180.112 25.7614 180.4 24.9886C180.695 24.2159 180.843 23.3106 180.843 22.2727C180.843 21.2348 180.699 20.3333 180.411 19.5682C180.123 18.803 179.707 18.2121 179.161 17.7955C178.616 17.3788 177.953 17.1705 177.173 17.1705C176.377 17.1705 175.707 17.3864 175.161 17.8182C174.616 18.25 174.203 18.8485 173.923 19.6136C173.642 20.3788 173.502 21.2652 173.502 22.2727C173.502 23.2879 173.642 24.1856 173.923 24.9659C174.211 25.7386 174.623 26.3447 175.161 26.7841C175.707 27.2159 176.377 27.4318 177.173 27.4318ZM196.705 31.3409C194.91 31.3409 193.364 30.9773 192.069 30.25C190.781 29.5152 189.788 28.4773 189.091 27.1364C188.395 25.7879 188.046 24.1932 188.046 22.3523C188.046 20.5568 188.395 18.9811 189.091 17.625C189.788 16.2689 190.77 15.2121 192.035 14.4545C193.307 13.697 194.8 13.3182 196.512 13.3182C197.663 13.3182 198.735 13.5038 199.728 13.875C200.728 14.2386 201.599 14.7879 202.341 15.5227C203.091 16.2576 203.675 17.1818 204.091 18.2955C204.508 19.4015 204.716 20.697 204.716 22.1818V23.5114H189.978V20.5114H200.16C200.16 19.8144 200.008 19.197 199.705 18.6591C199.402 18.1212 198.982 17.7008 198.444 17.3977C197.913 17.0871 197.296 16.9318 196.591 16.9318C195.857 16.9318 195.205 17.1023 194.637 17.4432C194.076 17.7765 193.637 18.2273 193.319 18.7955C193.001 19.3561 192.838 19.9811 192.83 20.6705V23.5227C192.83 24.3864 192.989 25.1326 193.307 25.7614C193.633 26.3902 194.091 26.875 194.682 27.2159C195.273 27.5568 195.974 27.7273 196.785 27.7273C197.323 27.7273 197.815 27.6515 198.262 27.5C198.709 27.3485 199.091 27.1212 199.41 26.8182C199.728 26.5152 199.97 26.1439 200.137 25.7045L204.614 26C204.387 27.0758 203.921 28.0152 203.216 28.8182C202.52 29.6136 201.618 30.2348 200.512 30.6818C199.413 31.1212 198.145 31.3409 196.705 31.3409Z" fill="white"/>
<defs>
<filter id="filter0_d_1_9" x="0" y="0" width="44" height="44" filterUnits="userSpaceOnUse" color-interpolation-filters="sRGB">
<feFlood flood-opacity="0" result="BackgroundImageFix"/>
<feColorMatrix in="SourceAlpha" type="matrix" values="0 0 0 0 0 0 0 0 0 0 0 0 0 0 0 0 0 0 127 0" result="hardAlpha"/>
<feOffset dy="4"/>
<feGaussianBlur stdDeviation="2"/>
<feComposite in2="hardAlpha" operator="out"/>
<feColorMatrix type="matrix" values="0 0 0 0 0 0 0 0 0 0 0 0 0 0 0 0 0 0 0.25 0"/>
<feBlend mode="normal" in2="BackgroundImageFix" result="effect1_dropShadow_1_9"/>
<feBlend mode="normal" in="SourceGraphic" in2="effect1_dropShadow_1_9" result="shape"/>
</filter>
<filter id="filter1_d_1_9" x="4" y="0" width="40" height="40" filterUnits="userSpaceOnUse" color-interpolation-filters="sRGB">
<feFlood flood-opacity="0" result="BackgroundImageFix"/>
<feColorMatrix in="SourceAlpha" type="matrix" values="0 0 0 0 0 0 0 0 0 0 0 0 0 0 0 0 0 0 127 0" result="hardAlpha"/>
<feMorphology radius="1" operator="erode" in="SourceAlpha" result="effect1_dropShadow_1_9"/>
<feOffset dx="2" dy="2"/>
<feGaussianBlur stdDeviation="1.5"/>
<feComposite in2="hardAlpha" operator="out"/>
<feColorMatrix type="matrix" values="0 0 0 0 1 0 0 0 0 1 0 0 0 0 1 0 0 0 0.25 0"/>
<feBlend mode="normal" in2="BackgroundImageFix" result="effect1_dropShadow_1_9"/>
<feBlend mode="normal" in="SourceGraphic" in2="effect1_dropShadow_1_9" result="shape"/>
</filter>
<linearGradient id="paint0_linear_1_9" x1="11" y1="4" x2="38" y2="35" gradientUnits="userSpaceOnUse">
<stop stop-color="#14B8A6"/>
<stop offset="1" stop-color="#14B856"/>
</linearGradient>
</defs>
</svg>
