<svg width="110" height="29" viewBox="0 0 110 29" fill="none" xmlns="http://www.w3.org/2000/svg">
<rect x="4" y="5" width="16" height="16" rx="2" fill="#010F18"/>
<path d="M16.1761 7.11321C15.6423 7.11321 15.1304 7.32525 14.753 7.70268C14.3756 8.08011 14.1635 8.59202 14.1635 9.12579V17.1761C14.1635 17.7099 14.3756 18.2218 14.753 18.5992C15.1304 18.9766 15.6423 19.1887 16.1761 19.1887C16.7099 19.1887 17.2218 18.9766 17.5992 18.5992C17.9767 18.2218 18.1887 17.7099 18.1887 17.1761C18.1887 16.6423 17.9767 16.1304 17.5992 15.753C17.2218 15.3756 16.7099 15.1635 16.1761 15.1635H8.1258C7.59203 15.1635 7.08012 15.3756 6.70269 15.753C6.32526 16.1304 6.11322 16.6423 6.11322 17.1761C6.11322 17.7099 6.32526 18.2218 6.70269 18.5992C7.08012 18.9766 7.59203 19.1887 8.1258 19.1887C8.65957 19.1887 9.17148 18.9766 9.54891 18.5992C9.92634 18.2218 10.1384 17.7099 10.1384 17.1761V9.12579C10.1384 8.59202 9.92634 8.08011 9.54891 7.70268C9.17148 7.32525 8.65957 7.11321 8.1258 7.11321C7.59203 7.11321 7.08012 7.32525 6.70269 7.70268C6.32526 8.08011 6.11322 8.59202 6.11322 9.12579C6.11322 9.65955 6.32526 10.1715 6.70269 10.5489C7.08012 10.9263 7.59203 11.1384 8.1258 11.1384H16.1761C16.7099 11.1384 17.2218 10.9263 17.5992 10.5489C17.9767 10.1715 18.1887 9.65955 18.1887 9.12579C18.1887 8.59202 17.9767 8.08011 17.5992 7.70268C17.2218 7.32525 16.7099 7.11321 16.1761 7.11321Z" stroke="url(#paint0_linear_5_8)" stroke-linecap="round" stroke-linejoin="round"/>
<path d="M26.0114 8.36364H29.0455L32.25 16.1818H32.3864L35.5909 8.36364H38.625V20H36.2386V12.4261H36.142L33.1307 19.9432H31.5057L28.4943 12.3977H28.3977V20H26.0114V8.36364ZM45.8031 16.2841V11.2727H48.2236V20H45.8997V18.4148H45.8088C45.6118 18.9261 45.2842 19.3371 44.8259 19.6477C44.3713 19.9583 43.8164 20.1136 43.1611 20.1136C42.5777 20.1136 42.0645 19.9811 41.6213 19.7159C41.1781 19.4508 40.8315 19.0739 40.5815 18.5852C40.3353 18.0966 40.2103 17.5114 40.2065 16.8295V11.2727H42.627V16.3977C42.6308 16.9129 42.769 17.3201 43.0418 17.6193C43.3145 17.9186 43.68 18.0682 44.1384 18.0682C44.43 18.0682 44.7027 18.0019 44.9565 17.8693C45.2103 17.733 45.4149 17.5322 45.5702 17.267C45.7293 17.0019 45.8069 16.6742 45.8031 16.2841ZM52.1801 8.36364V20H49.7597V8.36364H52.1801ZM58.3611 11.2727V13.0909H53.1054V11.2727H58.3611ZM54.2986 9.18182H56.719V17.3182C56.719 17.5417 56.7531 17.7159 56.8213 17.8409C56.8895 17.9621 56.9842 18.0473 57.1054 18.0966C57.2304 18.1458 57.3743 18.1705 57.5372 18.1705C57.6509 18.1705 57.7645 18.161 57.8781 18.142C57.9918 18.1193 58.0789 18.1023 58.1395 18.0909L58.5202 19.892C58.399 19.9299 58.2285 19.9735 58.0088 20.0227C57.7891 20.0758 57.5221 20.108 57.2077 20.1193C56.6243 20.142 56.113 20.0644 55.6736 19.8864C55.238 19.7083 54.899 19.4318 54.6565 19.0568C54.4141 18.6818 54.2948 18.2083 54.2986 17.6364V9.18182ZM59.5378 20V11.2727H61.9582V20H59.5378ZM60.7537 10.1477C60.3938 10.1477 60.0851 10.0284 59.8276 9.78977C59.5738 9.54735 59.4469 9.25758 59.4469 8.92045C59.4469 8.58712 59.5738 8.30114 59.8276 8.0625C60.0851 7.82008 60.3938 7.69886 60.7537 7.69886C61.1135 7.69886 61.4204 7.82008 61.6741 8.0625C61.9317 8.30114 62.0605 8.58712 62.0605 8.92045C62.0605 9.25758 61.9317 9.54735 61.6741 9.78977C61.4204 10.0284 61.1135 10.1477 60.7537 10.1477ZM63.4972 20V11.2727H65.804V12.8125H65.9062C66.0881 12.3011 66.3911 11.8977 66.8153 11.6023C67.2396 11.3068 67.7472 11.1591 68.3381 11.1591C68.9366 11.1591 69.446 11.3087 69.8665 11.608C70.2869 11.9034 70.5672 12.3049 70.7074 12.8125H70.7983C70.9763 12.3125 71.2983 11.9129 71.7642 11.6136C72.2339 11.3106 72.7888 11.1591 73.429 11.1591C74.2434 11.1591 74.9044 11.4186 75.4119 11.9375C75.9233 12.4527 76.179 13.1837 76.179 14.1307V20H73.7642V14.608C73.7642 14.1231 73.6354 13.7595 73.3778 13.517C73.1203 13.2746 72.7983 13.1534 72.4119 13.1534C71.9725 13.1534 71.6297 13.2936 71.3835 13.5739C71.1373 13.8504 71.0142 14.2159 71.0142 14.6705V20H68.6676V14.5568C68.6676 14.1288 68.5445 13.7879 68.2983 13.5341C68.0559 13.2803 67.7358 13.1534 67.3381 13.1534C67.0691 13.1534 66.8267 13.2216 66.6108 13.358C66.3987 13.4905 66.2301 13.678 66.1051 13.9205C65.9801 14.1591 65.9176 14.4394 65.9176 14.7614V20H63.4972ZM81.6341 20.1705C80.7515 20.1705 79.9883 19.983 79.3443 19.608C78.7042 19.2292 78.2098 18.7027 77.8614 18.0284C77.5129 17.3504 77.3386 16.5644 77.3386 15.6705C77.3386 14.7689 77.5129 13.9811 77.8614 13.3068C78.2098 12.6288 78.7042 12.1023 79.3443 11.7273C79.9883 11.3485 80.7515 11.1591 81.6341 11.1591C82.5167 11.1591 83.278 11.3485 83.9182 11.7273C84.5621 12.1023 85.0583 12.6288 85.4068 13.3068C85.7553 13.9811 85.9295 14.7689 85.9295 15.6705C85.9295 16.5644 85.7553 17.3504 85.4068 18.0284C85.0583 18.7027 84.5621 19.2292 83.9182 19.608C83.278 19.983 82.5167 20.1705 81.6341 20.1705ZM81.6455 18.2955C82.047 18.2955 82.3822 18.1818 82.6511 17.9545C82.9201 17.7235 83.1227 17.4091 83.2591 17.0114C83.3992 16.6136 83.4693 16.161 83.4693 15.6534C83.4693 15.1458 83.3992 14.6932 83.2591 14.2955C83.1227 13.8977 82.9201 13.5833 82.6511 13.3523C82.3822 13.1212 82.047 13.0057 81.6455 13.0057C81.2401 13.0057 80.8992 13.1212 80.6227 13.3523C80.35 13.5833 80.1436 13.8977 80.0034 14.2955C79.867 14.6932 79.7989 15.1458 79.7989 15.6534C79.7989 16.161 79.867 16.6136 80.0034 17.0114C80.1436 17.4091 80.35 17.7235 80.6227 17.9545C80.8992 18.1818 81.2401 18.2955 81.6455 18.2955ZM90.3193 20.142C89.6564 20.142 89.0561 19.9716 88.5182 19.6307C87.9841 19.286 87.5598 18.7803 87.2455 18.1136C86.9348 17.4432 86.7795 16.6212 86.7795 15.6477C86.7795 14.6477 86.9405 13.8163 87.2625 13.1534C87.5845 12.4867 88.0125 11.9886 88.5466 11.6591C89.0845 11.3258 89.6735 11.1591 90.3136 11.1591C90.8023 11.1591 91.2095 11.2424 91.5352 11.4091C91.8648 11.572 92.1299 11.7765 92.3307 12.0227C92.5352 12.2652 92.6905 12.5038 92.7966 12.7386H92.8705V8.36364H95.2852V20H92.8989V18.6023H92.7966C92.683 18.8447 92.522 19.0852 92.3136 19.3239C92.1091 19.5587 91.842 19.7538 91.5125 19.9091C91.1867 20.0644 90.789 20.142 90.3193 20.142ZM91.0864 18.2159C91.4765 18.2159 91.8061 18.1098 92.075 17.8977C92.3477 17.6818 92.5561 17.3807 92.7 16.9943C92.8477 16.608 92.9216 16.1553 92.9216 15.6364C92.9216 15.1174 92.8496 14.6667 92.7057 14.2841C92.5617 13.9015 92.3534 13.6061 92.0807 13.3977C91.808 13.1894 91.4765 13.0852 91.0864 13.0852C90.6886 13.0852 90.3534 13.1932 90.0807 13.4091C89.808 13.625 89.6015 13.9242 89.4614 14.3068C89.3212 14.6894 89.2511 15.1326 89.2511 15.6364C89.2511 16.1439 89.3212 16.5928 89.4614 16.983C89.6053 17.3693 89.8117 17.6723 90.0807 17.892C90.3534 18.108 90.6886 18.2159 91.0864 18.2159ZM100.853 20.1705C99.9548 20.1705 99.1821 19.9886 98.5344 19.625C97.8904 19.2576 97.3942 18.7386 97.0457 18.0682C96.6973 17.3939 96.523 16.5966 96.523 15.6761C96.523 14.7784 96.6973 13.9905 97.0457 13.3125C97.3942 12.6345 97.8848 12.1061 98.5173 11.7273C99.1537 11.3485 99.8999 11.1591 100.756 11.1591C101.332 11.1591 101.868 11.2519 102.364 11.4375C102.864 11.6193 103.3 11.8939 103.671 12.2614C104.046 12.6288 104.337 13.0909 104.546 13.6477C104.754 14.2008 104.858 14.8485 104.858 15.5909V16.2557H97.4889V14.7557H102.58C102.58 14.4072 102.504 14.0985 102.353 13.8295C102.201 13.5606 101.991 13.3504 101.722 13.1989C101.457 13.0436 101.148 12.9659 100.796 12.9659C100.428 12.9659 100.103 13.0511 99.8185 13.2216C99.5382 13.3883 99.3185 13.6136 99.1594 13.8977C99.0003 14.178 98.9188 14.4905 98.9151 14.8352V16.2614C98.9151 16.6932 98.9946 17.0663 99.1537 17.3807C99.3166 17.6951 99.5457 17.9375 99.8412 18.108C100.137 18.2784 100.487 18.3636 100.892 18.3636C101.161 18.3636 101.407 18.3258 101.631 18.25C101.854 18.1742 102.046 18.0606 102.205 17.9091C102.364 17.7576 102.485 17.572 102.568 17.3523L104.807 17.5C104.693 18.0379 104.461 18.5076 104.108 18.9091C103.76 19.3068 103.309 19.6174 102.756 19.8409C102.207 20.0606 101.572 20.1705 100.853 20.1705Z" fill="#010F18"/>
<defs>
<linearGradient id="paint0_linear_5_8" x1="7.11112" y1="6.77778" x2="19.1111" y2="20.5556" gradientUnits="userSpaceOnUse">
<stop stop-color="#14B8A6"/>
<stop offset="1" stop-color="#14B856"/>
</linearGradient>
</defs>
</svg>
